<svg width="36" height="36" viewBox="0 0 36 36" fill="none" xmlns="http://www.w3.org/2000/svg">
<path d="M3.86572 3.35168H6.38308C7.94558 3.35168 9.17533 4.69717 9.04512 6.2452L7.84431 20.6549C7.79743 21.2132 7.86701 21.7751 8.04864 22.305C8.23028 22.835 8.52002 23.3214 8.89949 23.7335C9.27896 24.1456 9.7399 24.4745 10.2531 24.6991C10.7663 24.9238 11.3206 25.0394 11.8808 25.0386H27.2888C29.3721 25.0386 31.195 23.3314 31.3542 21.2626L32.1354 10.4119C32.309 8.01025 30.4861 6.05712 28.07 6.05712H9.39234M13.993 12.0322H31.3542M24.482 32.2869C24.9617 32.2869 25.4217 32.0963 25.7608 31.7572C26.1 31.418 26.2905 30.9581 26.2905 30.4784C26.2905 29.9988 26.1 29.5388 25.7608 29.1997C25.4217 28.8605 24.9617 28.67 24.482 28.67C24.0024 28.67 23.5424 28.8605 23.2033 29.1997C22.8641 29.5388 22.6736 29.9988 22.6736 30.4784C22.6736 30.9581 22.8641 31.418 23.2033 31.7572C23.5424 32.0963 24.0024 32.2869 24.482 32.2869ZM12.908 32.2869C13.3876 32.2869 13.8476 32.0963 14.1867 31.7572C14.5259 31.418 14.7164 30.9581 14.7164 30.4784C14.7164 29.9988 14.5259 29.5388 14.1867 29.1997C13.8476 28.8605 13.3876 28.67 12.908 28.67C12.4283 28.67 11.9684 28.8605 11.6292 29.1997C11.2901 29.5388 11.0995 29.9988 11.0995 30.4784C11.0995 30.9581 11.2901 31.418 11.6292 31.7572C11.9684 32.0963 12.4283 32.2869 12.908 32.2869Z" stroke="white" stroke-width="1.30208" stroke-miterlimit="10" stroke-linecap="round" stroke-linejoin="round"/>
</svg>
