<svg width="27" height="27" viewBox="0 0 27 27" fill="none" xmlns="http://www.w3.org/2000/svg">
<path d="M15.9202 10.966V14.1127H18.7413C18.9584 14.1127 19.0669 14.3297 19.0669 14.5467L18.6328 16.6083C18.6328 16.7169 18.4158 16.8254 18.3073 16.8254H15.9202V24.7464H12.665V16.9339H10.8203C10.6033 16.9339 10.4948 16.8254 10.4948 16.6083V14.5467C10.4948 14.3297 10.6033 14.2212 10.8203 14.2212H12.665V10.6405C12.665 8.79584 14.0755 7.38525 15.9202 7.38525H18.8498C19.0669 7.38525 19.1754 7.49376 19.1754 7.71077V10.3149C19.1754 10.532 19.0669 10.6405 18.8498 10.6405H16.2457C16.0287 10.6405 15.9202 10.749 15.9202 10.966Z" stroke="#0A9607" stroke-width="1.73611" stroke-miterlimit="10" stroke-linecap="round"/>
<path d="M17.0052 24.7466H10.4948C5.06946 24.7466 2.89932 22.5764 2.89932 17.1511V10.6407C2.89932 5.2153 5.06946 3.04517 10.4948 3.04517H17.0052C22.4306 3.04517 24.6007 5.2153 24.6007 10.6407V17.1511C24.6007 22.5764 22.4306 24.7466 17.0052 24.7466Z" stroke="#0A9607" stroke-width="1.73611" stroke-linecap="round" stroke-linejoin="round"/>
</svg>
