<svg width="36" height="36" viewBox="0 0 36 36" fill="none" xmlns="http://www.w3.org/2000/svg">
<path d="M17.9167 32.2869C25.9071 32.2869 32.3843 25.8097 32.3843 17.8193C32.3843 9.82883 25.9071 3.35168 17.9167 3.35168C9.92624 3.35168 3.4491 9.82883 3.4491 17.8193C3.4491 25.8097 9.92624 32.2869 17.9167 32.2869Z" stroke="white" stroke-width="1.30208" stroke-linecap="round" stroke-linejoin="round"/>
<path d="M12.1296 4.79858H13.5764C10.7553 13.2499 10.7553 22.3889 13.5764 30.8403H12.1296M22.2569 4.79858C25.0781 13.2499 25.0781 22.3889 22.2569 30.8403" stroke="white" stroke-width="1.30208" stroke-linecap="round" stroke-linejoin="round"/>
<path d="M4.89587 23.6064V22.1597C13.3472 24.9808 22.4862 24.9808 30.9375 22.1597V23.6064M4.89587 13.4791C13.3472 10.658 22.4862 10.658 30.9375 13.4791" stroke="white" stroke-width="1.30208" stroke-linecap="round" stroke-linejoin="round"/>
</svg>
