<svg width="27" height="27" viewBox="0 0 27 27" fill="none" xmlns="http://www.w3.org/2000/svg">
<path d="M10.467 24.7466H16.9775C22.4028 24.7466 24.5729 22.5764 24.5729 17.1511V10.6407C24.5729 5.2153 22.4028 3.04517 16.9775 3.04517H10.467C5.04169 3.04517 2.87155 5.2153 2.87155 10.6407V17.1511C2.87155 22.5764 5.04169 24.7466 10.467 24.7466Z" stroke="#0A9607" stroke-width="1.73611" stroke-linecap="round" stroke-linejoin="round"/>
<path d="M13.7223 17.6934C14.221 17.6934 14.7148 17.5952 15.1756 17.4043C15.6364 17.2134 16.055 16.9337 16.4077 16.5811C16.7603 16.2284 17.0401 15.8097 17.2309 15.349C17.4218 14.8882 17.52 14.3944 17.52 13.8956C17.52 13.3969 17.4218 12.9031 17.2309 12.4423C17.0401 11.9815 16.7603 11.5629 16.4077 11.2102C16.055 10.8576 15.6364 10.5778 15.1756 10.387C14.7148 10.1961 14.221 10.0979 13.7223 10.0979C12.715 10.0979 11.7491 10.498 11.0368 11.2102C10.3246 11.9224 9.92451 12.8884 9.92451 13.8956C9.92451 14.9029 10.3246 15.8688 11.0368 16.5811C11.7491 17.2933 12.715 17.6934 13.7223 17.6934Z" stroke="#0A9607" stroke-width="1.73611" stroke-linecap="round" stroke-linejoin="round"/>
<path d="M19.8377 8.47046H19.8514" stroke="#0A9607" stroke-width="1.73611" stroke-linecap="round" stroke-linejoin="round"/>
</svg>
