<svg width="36" height="36" viewBox="0 0 36 36" fill="none" xmlns="http://www.w3.org/2000/svg">
<path d="M17.9537 16.1845C17.809 16.17 17.6354 16.17 17.4763 16.1845C15.8157 16.1281 14.2423 15.4276 13.0892 14.2313C11.9361 13.035 11.2939 11.4369 11.2986 9.77536C11.2986 6.2308 14.1632 3.35175 17.7222 3.35175C18.5649 3.33655 19.4022 3.48747 20.1865 3.79588C20.9708 4.10429 21.6866 4.56416 22.2932 5.14922C22.8998 5.73429 23.3852 6.4331 23.7217 7.20576C24.0581 7.97841 24.2392 8.80978 24.2544 9.65239C24.2696 10.495 24.1186 11.3324 23.8102 12.1166C23.5018 12.9009 23.042 13.6168 22.4569 14.2234C21.8718 14.8299 21.173 15.3153 20.4004 15.6518C19.6277 15.9883 18.7963 16.1693 17.9537 16.1845ZM10.7199 21.523C7.21877 23.8668 7.21877 27.6862 10.7199 30.0155C14.6985 32.6776 21.2234 32.6776 25.202 30.0155C28.7031 27.6718 28.7031 23.8523 25.202 21.523C21.2379 18.8755 14.713 18.8755 10.7199 21.523Z" stroke="white" stroke-width="1.30208" stroke-linecap="round" stroke-linejoin="round"/>
</svg>
