<svg width="22" height="22" viewBox="0 0 22 22" fill="none" xmlns="http://www.w3.org/2000/svg">
<g clip-path="url(#clip0_0_224)">
<path d="M19.4445 19.4997L17.7084 17.7636M10.3299 18.6316C11.4128 18.6316 12.4852 18.4183 13.4857 18.0039C14.4862 17.5895 15.3953 16.982 16.1611 16.2163C16.9268 15.4505 17.5343 14.5414 17.9487 13.5409C18.3631 12.5404 18.5764 11.468 18.5764 10.3851C18.5764 9.30213 18.3631 8.22978 17.9487 7.22927C17.5343 6.22875 16.9268 5.31966 16.1611 4.5539C15.3953 3.78814 14.4862 3.18071 13.4857 2.76628C12.4852 2.35185 11.4128 2.13855 10.3299 2.13855C8.14277 2.13855 6.04523 3.00738 4.49871 4.5539C2.95219 6.10043 2.08336 8.19796 2.08336 10.3851C2.08336 12.5722 2.95219 14.6697 4.49871 16.2163C6.04523 17.7628 8.14277 18.6316 10.3299 18.6316Z" stroke="white" stroke-width="2.17014" stroke-linecap="round" stroke-linejoin="round"/>
</g>
<defs>
<clipPath id="clip0_0_224">
<rect width="20.8333" height="20.8333" fill="white" transform="translate(0.347244 0.402588)"/>
</clipPath>
</defs>
</svg>
